<svg xmlns="http://www.w3.org/2000/svg" viewBox="0 0 100 100">
  <defs>
    <linearGradient id="screenGrad" x1="0%" y1="0%" x2="100%" y2="100%">
      <stop offset="0%" style="stop-color:#00a8ff;stop-opacity:1" />
      <stop offset="100%" style="stop-color:#0077c7;stop-opacity:1" />
    </linearGradient>
    <linearGradient id="standGrad" x1="0%" y1="0%" x2="0%" y2="100%">
      <stop offset="0%" style="stop-color:#4a4a4a;stop-opacity:1" />
      <stop offset="100%" style="stop-color:#2a2a2a;stop-opacity:1" />
    </linearGradient>
  </defs>
  
  <!-- TV Screen -->
  <rect x="10" y="10" width="80" height="55" rx="5" ry="5" fill="#1a1a1a" stroke="#404040" stroke-width="2"/>
  
  <!-- Screen Content -->
  <rect x="15" y="15" width="70" height="45" rx="2" ry="2" fill="url(#screenGrad)"/>
  
  <!-- Screen Grid Lines (representing video) -->
  <line x1="20" y1="30" x2="80" y2="30" stroke="#00d4ff" stroke-width="0.5" opacity="0.4"/>
  <line x1="20" y1="40" x2="80" y2="40" stroke="#00d4ff" stroke-width="0.5" opacity="0.4"/>
  <line x1="20" y1="50" x2="80" y2="50" stroke="#00d4ff" stroke-width="0.5" opacity="0.4"/>
  
  <!-- TV Frame Bottom -->
  <rect x="25" y="60" width="50" height="4" rx="2" ry="2" fill="#2d2d2d"/>
  
  <!-- TV Stand -->
  <rect x="40" y="64" width="20" height="5" rx="2" ry="2" fill="url(#standGrad)"/>
  <rect x="35" y="69" width="30" height="4" rx="2" ry="2" fill="#2a2a2a"/>
  
  <!-- Speaker Dots -->
  <circle cx="20" cy="35" r="1" fill="#ffffff" opacity="0.6"/>
  <circle cx="20" cy="40" r="1" fill="#ffffff" opacity="0.6"/>
  <circle cx="20" cy="45" r="1" fill="#ffffff" opacity="0.6"/>
  <circle cx="20" cy="50" r="1" fill="#ffffff" opacity="0.6"/>
  
  <circle cx="80" cy="35" r="1" fill="#ffffff" opacity="0.6"/>
  <circle cx="80" cy="40" r="1" fill="#ffffff" opacity="0.6"/>
  <circle cx="80" cy="45" r="1" fill="#ffffff" opacity="0.6"/>
  <circle cx="80" cy="50" r="1" fill="#ffffff" opacity="0.6"/>
</svg>

